<?xml version="1.0" encoding="UTF-8"?>
<svg version="1.1" viewBox="0 0 1600 1600" width="1280" height="1280" xmlns="http://www.w3.org/2000/svg">
<path transform="translate(709 -.281)" d="m0 0c0.808-0.00594 1.62-0.0119 2.45-0.018 2.69-0.0172 5.38-0.0204 8.06-0.0234 1.94-0.00927 3.87-0.0193 5.81-0.0301 5.25-0.0262 10.5-0.0391 15.7-0.048 3.28-0.00588 6.57-0.0141 9.85-0.023 10.3-0.0273 20.6-0.0467 30.9-0.0544 11.8-0.00895 23.7-0.044 35.5-0.102 9.18-0.0434 18.4-0.0634 27.5-0.0661 5.47-0.00209 10.9-0.0137 16.4-0.0496 5.15-0.0332 10.3-0.0372 15.5-0.0197 1.88 0.00153 3.76-0.00699 5.64-0.0269 15.2-0.151 29.6 2 41.2 12.7 0.661 0.538 1.32 1.08 2 1.63 13.5 11.9 16.1 32.4 20.1 49 0.654 2.69 1.31 5.37 1.97 8.06 1.34 5.48 2.67 11 4 16.4 1.73 7.15 3.48 14.3 5.25 21.4 4.45 18 8.85 36 13.2 54.1 0.517 2.15 1.03 4.3 1.55 6.45 0.343 1.42 0.685 2.85 1.03 4.27 0.169 0.701 0.338 1.4 0.512 2.12 0.996 4.14 1.99 8.28 2.98 12.4 0.762 3.18 1.53 6.36 2.29 9.55 0.271 1.14 0.543 2.28 0.822 3.46 0.507 2.1 1.03 4.2 1.57 6.29 0.467 1.82 0.899 3.64 1.29 5.48 0.813 3.25 1.4 5.58 4.14 7.63 2.24 1.06 4.45 1.83 6.82 2.57 0.849 0.296 1.7 0.591 2.57 0.896 1.81 0.627 3.63 1.24 5.45 1.83 3.8 1.25 7.58 2.57 11.4 3.89 1.86 0.647 3.72 1.29 5.58 1.93 9.76 3.35 19.2 7.29 28.5 11.6 1.22 0.562 2.44 1.12 3.66 1.69 24.5 11.3 24.5 11.3 29.5 14.1 2.65 1.43 2.65 1.43 4.93 1.1 2.29-1.01 4.41-2.14 6.57-3.41 0.926-0.541 1.85-1.08 2.81-1.64 1-0.593 2-1.19 3.04-1.8l3.18-1.87c9.51-5.61 18.9-11.3 28.4-17.1 6.94-4.23 13.9-8.41 20.9-12.5 7.94-4.64 15.8-9.39 23.7-14.1 3.38-2.03 6.76-4.06 10.1-6.09 1.21-0.727 2.42-1.45 3.63-2.18 2.37-1.42 4.74-2.84 7.11-4.27 0.596-0.358 1.19-0.715 1.81-1.08 1.22-0.732 2.44-1.46 3.66-2.19 3.63-2.17 7.24-4.38 10.8-6.62 17.6-10.9 32.3-18.2 53.4-14.4 13.7 4.29 24.4 15.5 34.2 25.4 1.29 1.28 2.58 2.57 3.87 3.85 3.47 3.45 6.92 6.92 10.4 10.4 3.63 3.65 7.28 7.28 10.9 10.9 6.11 6.11 12.2 12.2 18.3 18.3 7.03 7.05 14.1 14.1 21.1 21.1 6.81 6.8 13.6 13.6 20.4 20.4 2.88 2.89 5.76 5.77 8.65 8.65 3.4 3.4 6.79 6.8 10.2 10.2 1.24 1.24 2.48 2.48 3.72 3.72 12.9 12.9 24 25.5 24.5 44.7-0.912 20.4-14.7 38.3-25.1 55.2-3.97 6.47-7.84 13-11.7 19.5-6.05 10.2-12.1 20.5-18.3 30.6-1.41 2.35-2.82 4.69-4.22 7.04-4.49 7.51-9 15-13.6 22.5-0.378 0.621-0.756 1.24-1.15 1.88-1.87 3.07-3.74 6.15-5.62 9.22-1.36 2.23-2.71 4.47-4.06 6.71-1.13 1.88-2.28 3.75-3.47 5.6-0.468 0.762-0.936 1.52-1.42 2.31-0.604 0.951-0.604 0.951-1.22 1.92-1.66 5.09 0.369 9.91 2.63 14.5 0.32 0.626 0.639 1.25 0.969 1.9 0.335 0.678 0.669 1.36 1.01 2.05 1.07 2.16 2.15 4.31 3.23 6.46 9.43 18.8 17.2 38 24.4 57.8 1 2.78 2.01 5.55 3.02 8.33 0.618 1.71 1.23 3.41 1.85 5.12 1.44 4.06 1.44 4.06 3.2 7.99 2.11 0.83 2.11 0.83 4.76 1.49 1.07 0.287 2.14 0.574 3.24 0.87 1.22 0.315 2.43 0.63 3.68 0.955 0.64 0.168 1.28 0.336 1.94 0.509 17.3 4.55 34.8 8.65 52.2 12.8 24 5.74 47.9 11.6 71.8 17.5 3.28 0.812 6.56 1.62 9.84 2.43 5.03 1.24 10.1 2.5 15.1 3.76 1.82 0.456 3.64 0.908 5.46 1.36 17 4.2 33.9 9.43 43.7 25.1 6.79 13 7.64 24.8 7.6 39.2 0.00571 1.91 0.0127 3.82 0.0208 5.73 0.0179 5.17 0.0168 10.3 0.0111 15.5-0.0031 4.32 0.00301 8.65 0.00904 13 0.014 10.2 0.0125 20.4 0.0011 30.6-0.0115 10.5 0.00259 21 0.0294 31.5 0.0222 9.04 0.0288 18.1 0.0229 27.1-0.00336 5.39-0.00102 10.8 0.0163 16.2 0.0155 5.07 0.0114 10.1-0.00731 15.2-0.00367 1.85-6.36e-4 3.7 0.00989 5.56 0.0888 16.9-2.71 32.5-14.6 45.4-16.6 15.4-44.6 18.2-65.9 23.3-6.14 1.47-12.3 2.95-18.4 4.43-1.62 0.39-3.24 0.781-4.85 1.17-13.3 3.2-26.5 6.44-39.7 9.72-0.912 0.226-1.82 0.451-2.76 0.684-8.96 2.22-17.9 4.44-26.9 6.66-3.34 0.829-6.68 1.66-10 2.48-1.54 0.381-3.07 0.762-4.6 1.14-10.9 2.71-21.8 5.22-32.8 7.61-0.165 0.661-0.33 1.32-0.5 2-2.32 9.15-5.56 18-8.81 26.8-0.304 0.83-0.608 1.66-0.921 2.51-6.02 16.4-13.1 32-20.8 47.7-1.28 2.62-2.55 5.24-3.81 7.86-0.674 1.4-1.36 2.79-2.05 4.18-1.69 3.48-2.81 6.1-2.13 9.95 1.23 2.41 2.48 4.6 3.94 6.88 0.836 1.35 1.67 2.7 2.51 4.04 0.428 0.682 0.857 1.36 1.3 2.07 1.9 3.04 3.73 6.12 5.57 9.2 0.754 1.26 1.51 2.51 2.26 3.77 18.1 30.2 18.1 30.2 20 33.3 1.29 2.14 2.57 4.29 3.86 6.43 2.86 4.77 5.73 9.55 8.59 14.3 0.95 1.59 1.9 3.17 2.85 4.76 0.704 1.18 0.704 1.18 1.42 2.37 2.94 4.9 5.9 9.77 8.88 14.6 30.9 50.6 30.9 50.6 27.2 70.5-3.7 13.9-13 23.9-23 33.7-1.15 1.15-2.31 2.3-3.46 3.45-3.1 3.09-6.2 6.17-9.31 9.25-3.26 3.23-6.51 6.48-9.76 9.72-6.15 6.13-12.3 12.2-18.5 18.4-9.06 8.99-18.1 18-27.2 27-0.663 0.661-1.33 1.32-2.01 2-1.32 1.32-2.64 2.63-3.96 3.95-3.87 3.86-7.75 7.71-11.6 11.6-2.4 2.39-4.8 4.77-7.2 7.16-1.12 1.11-2.23 2.22-3.35 3.33-1.52 1.51-3.04 3.02-4.56 4.53-0.851 0.845-1.7 1.69-2.58 2.56-1.97 1.89-1.97 1.89-2.93 4.04h-2v2h-2c-0.33 0.99-0.66 1.98-1 3h-2v2c-2.47 2.55-5.27 4.74-8 7-0.744 0.619-1.49 1.24-2.25 1.88-9.95 8.03-20.8 13-33.7 12.1-0.757-0.00773-1.51-0.0155-2.29-0.0234-12.7-0.54-24.4-8.27-34.9-14.9-1.83-1.13-3.66-2.26-5.48-3.38-1.25-0.769-2.5-1.54-3.74-2.31-6.48-4-13-7.88-19.6-11.7-10.3-6.09-20.6-12.2-30.8-18.4-3.33-2-6.66-4-9.98-5.99-1.2-0.723-2.41-1.45-3.61-2.17-0.587-0.352-1.17-0.705-1.78-1.07-20.5-12.3-20.5-12.3-22.4-13.5-1.24-0.744-2.48-1.49-3.73-2.23-3.27-1.95-6.52-3.94-9.75-5.96-0.674-0.418-1.35-0.835-2.04-1.27-1.29-0.8-2.57-1.61-3.85-2.43-3.49-2.15-5.91-3.47-10-2.74-3.11 1.27-3.11 1.27-6.5 3.12-1.45 0.744-2.9 1.49-4.36 2.23-2.68 1.38-5.36 2.76-8.03 4.14-21.6 11.1-44.1 19.5-67 27.7-3.76 1.36-7.51 2.76-11.3 4.16-1.89 0.616-1.89 0.616-3.89 0.616-0.204 0.947-0.408 1.89-0.618 2.87-3.16 14.5-6.67 28.9-10.2 43.4-0.525 2.16-1.05 4.32-1.57 6.48-6.57 27.1-13.3 54.1-20.1 81.2-1.86 7.41-3.68 14.8-5.48 22.3-0.665 2.73-1.33 5.46-2 8.2-0.4 1.65-0.795 3.3-1.19 4.95-3.94 16.7-8.66 31.7-23.3 42.1-9.45 5.83-19.8 8.94-30.8 8.89-1.19 0.0068-1.19 0.0068-2.41 0.0137-2.64 0.0126-5.28 0.011-7.92 0.00937-1.9 0.00599-3.8 0.0128-5.7 0.0204-5.15 0.0176-10.3 0.0224-15.5 0.0236-3.22 0.00142-6.45 0.0057-9.67 0.011-11.3 0.0185-22.5 0.0267-33.8 0.0251-10.5-0.0012-20.9 0.0199-31.4 0.0515-9.01 0.0262-18 0.0369-27 0.0356-5.37-5.08e-4 -10.7 0.0051-16.1 0.0264-5.06 0.0195-10.1 0.0195-15.2 0.00497-1.85-0.00208-3.69 0.00256-5.54 0.0147-17.3 0.106-32.6-2.94-45.8-14.9-11.6-12.7-14.5-29.9-18.4-46.2-0.828-3.44-1.67-6.88-2.52-10.3-1.29-5.25-2.57-10.5-3.84-15.8-2.77-11.4-5.59-22.8-8.42-34.3-0.467-1.88-0.933-3.77-1.4-5.65-0.7-2.82-1.4-5.65-2.1-8.47-2.21-8.94-4.43-17.9-6.63-26.8-0.621-2.51-1.24-5.03-1.87-7.54-2-8.1-3.97-16.2-5.87-24.3-0.542-2.3-1.08-4.6-1.63-6.89-0.5-2.14-0.989-4.27-1.48-6.41-0.299-1.27-0.599-2.54-0.907-3.85-0.256-1.11-0.512-2.22-0.775-3.36-0.946-2.81-1.56-3.98-3.92-5.73-1.96-0.983-1.96-0.983-4.18-1.73-0.844-0.305-1.69-0.61-2.56-0.924-0.915-0.321-1.83-0.643-2.77-0.974-1.96-0.708-3.93-1.42-5.89-2.12-1.03-0.367-2.05-0.735-3.11-1.11-17.6-6.3-34.8-12.8-51.5-21.1-4.28-2.12-8.57-4.24-12.9-6.35-1.78-0.881-3.55-1.78-5.33-2.68-1.08-0.533-2.15-1.07-3.26-1.61-0.952-0.48-1.9-0.96-2.89-1.45-4.03-1.37-6.39-0.536-10.1 1.3-0.852 0.505-1.7 1.01-2.58 1.53-0.964 0.567-1.93 1.13-2.92 1.72-1.03 0.613-2.05 1.23-3.11 1.86-1.07 0.631-2.14 1.26-3.24 1.91-3.24 1.92-6.47 3.84-9.7 5.78-0.909 0.542-1.82 1.08-2.76 1.64-4.94 2.95-9.88 5.92-14.8 8.89-4.14 2.5-8.29 4.98-12.4 7.47-1.67 1-3.35 2.01-5.02 3.01-10.4 6.22-20.7 12.4-31.1 18.7-1.05 0.629-2.1 1.26-3.18 1.91-2.13 1.28-4.26 2.56-6.4 3.84-5.01 3-10 6.01-15 9.03-0.889 0.538-1.78 1.08-2.7 1.63-1.64 0.99-3.27 1.98-4.9 2.98-9.79 5.92-20.1 12-31.7 12.9-0.777 0.0761-1.55 0.152-2.36 0.23-14.9 0.815-26.5-6.07-37.2-15.6-3.99-3.72-7.83-7.59-11.7-11.5-1.28-1.27-2.56-2.55-3.84-3.82-3.44-3.43-6.88-6.87-10.3-10.3-3.61-3.62-7.23-7.23-10.8-10.8-6.07-6.06-12.1-12.1-18.2-18.2-6.98-7-14-14-21-21-6.03-6.02-12.1-12-18.1-18.1-3.59-3.59-7.17-7.18-10.8-10.8-3.38-3.37-6.75-6.75-10.1-10.1-1.23-1.23-2.46-2.46-3.7-3.69-9.33-9.28-18.4-18.7-22.9-31.3-0.433-1.18-0.866-2.35-1.31-3.56-4.02-18.6 5.56-34.9 14.9-50.1 2-3.27 3.97-6.57 5.94-9.86 2.02-3.37 4.04-6.74 6.07-10.1 2.03-3.38 4.06-6.76 6.09-10.1 0.733-1.22 1.47-2.44 2.2-3.66 1.36-2.26 2.72-4.53 4.07-6.8 3.97-6.64 7.97-13.3 12-19.9 1.1-1.81 2.2-3.61 3.3-5.42 0.368-0.605 0.736-1.21 1.12-1.83 5.46-8.97 10.8-18 16.1-27 2.43-4.15 4.91-8.25 7.55-12.3 0.476-0.73 0.953-1.46 1.44-2.21 0.882-1.34 1.78-2.67 2.69-3.99 1.85-2.81 2.85-4.52 2.57-7.92-0.804-3.33-1.93-6.12-3.39-9.21l-1.64-3.51c-0.577-1.21-1.15-2.42-1.73-3.63-0.54-1.15-1.08-2.3-1.64-3.48-0.553-1.17-1.11-2.35-1.68-3.56-0.289-0.614-0.577-1.23-0.875-1.86-1.61-3.41-3.25-6.8-4.93-10.2-6.43-13.1-11.4-26.5-16.3-40.2-1.2-3.34-2.4-6.67-3.61-10-0.743-2.05-1.48-4.11-2.21-6.17-0.497-1.38-0.497-1.38-1-2.79-0.288-0.807-0.576-1.61-0.873-2.44-0.883-2.33-0.883-2.33-2.86-5.09-2.47-0.964-2.47-0.964-5.46-1.6-1.73-0.418-1.73-0.418-3.5-0.844-1.27-0.293-2.54-0.586-3.84-0.888-1.33-0.317-2.67-0.636-4-0.956-2.86-0.683-5.71-1.36-8.57-2.03-4.54-1.06-9.07-2.14-13.6-3.23-1.53-0.366-3.06-0.732-4.59-1.1-1.14-0.272-1.14-0.272-2.3-0.55-2.31-0.552-4.63-1.1-6.94-1.65-15.2-3.61-30.3-7.39-45.5-11.2-2.09-0.527-4.18-1.05-6.28-1.58-1.05-0.264-2.1-0.528-3.18-0.8-7.6-1.91-15.2-3.79-22.8-5.65-5.12-1.25-10.2-2.51-15.3-3.77-3.55-0.875-7.11-1.75-10.7-2.61-3.97-0.959-7.93-1.94-11.9-2.92-1.16-0.278-2.32-0.555-3.52-0.842-16.5-4.13-30.8-10.7-40-25.8-4.54-8.4-6.31-17-6.27-26.5-0.00453-0.803-0.00906-1.61-0.0137-2.43-0.0126-2.66-0.011-5.33-0.00937-7.99-0.00599-1.92-0.0128-3.84-0.0204-5.76-0.0176-5.2-0.0224-10.4-0.0236-15.6-0.00142-3.25-0.0057-6.51-0.011-9.76-0.0185-11.4-0.0267-22.7-0.0251-34.1 0.0012-10.6-0.0199-21.1-0.0515-31.7-0.0262-9.1-0.0369-18.2-0.0356-27.3 5.08e-4 -5.42-0.0051-10.8-0.0264-16.3-0.0195-5.11-0.0195-10.2-0.00497-15.3 0.00208-1.87-0.00256-3.73-0.0147-5.6-0.1-16.4 2.24-31.1 13.5-44 8.23-7.86 17.7-11.5 28.5-14.4 0.951-0.256 1.9-0.512 2.88-0.776 12.4-3.31 24.9-6.33 37.4-9.38 6.46-1.58 12.9-3.16 19.4-4.75 1.1-0.27 1.1-0.27 2.22-0.545 11-2.69 22-5.41 32.9-8.16 0.701-0.175 1.4-0.351 2.12-0.531 6.88-1.72 13.8-3.45 20.6-5.18 23.4-5.88 23.4-5.88 35.1-8.61 0.806-0.189 1.61-0.378 2.44-0.573 3.51-0.821 7.01-1.63 10.5-2.41 1.14-0.265 2.29-0.53 3.46-0.803l2.89-0.644c3.6-1.36 5.61-3.13 7.28-6.64 0.842-2.13 1.59-4.28 2.33-6.45 0.593-1.68 1.19-3.36 1.78-5.04 0.308-0.884 0.615-1.77 0.932-2.68 5.21-14.9 10.8-29.6 17.3-44.1 0.311-0.698 0.622-1.4 0.943-2.12 3.16-7.07 6.37-14.1 10.2-20.8 1.01-2.88 0.712-4.24-0.246-7.15-1.27-2.36-2.58-4.6-4-6.86-0.825-1.34-1.65-2.69-2.47-4.03-0.633-1.02-0.633-1.02-1.28-2.07-1.93-3.15-3.81-6.33-5.69-9.52-0.748-1.26-1.5-2.53-2.24-3.79-0.377-0.638-0.755-1.28-1.14-1.93-6.53-11-13.1-22-19.8-33-6.62-10.9-13.1-21.8-19.5-32.8-3.84-6.59-7.76-13.1-11.8-19.6-3.54-5.72-7.03-11.5-10.5-17.2-0.822-1.36-1.65-2.72-2.48-4.08-8.92-14.6-18.2-30.5-14.3-48.2 2.31-8.93 6.24-15.8 12.2-22.9 0.478-0.615 0.956-1.23 1.45-1.86 2.53-3.21 5.35-5.63 8.55-8.14 0.66-0.99 1.32-1.98 2-3h2l1-3c1.94-2.19 1.94-2.19 4-4h2l1-3c1.45-1.22 2.91-2.44 4.39-3.61 1.88-1.54 1.88-1.54 4.11-4.39 2.59-3.11 5.4-5.42 8.5-8 1.67-2 3.34-4 5-6 1.67-1.33 3.33-2.67 5-4 0.804-0.969 1.61-1.94 2.44-2.94 2.62-3.13 5.44-5.46 8.56-8.06l2.5-3c2.59-3.1 5.4-5.43 8.5-8l1.94-2.44c1.76-2.19 3.36-3.73 5.5-5.5 2.32-1.92 4.31-3.83 6.19-6.19 2.28-2.76 4.6-4.65 7.38-6.88 0.804-0.969 1.61-1.94 2.44-2.94 2.62-3.13 5.44-5.46 8.56-8.06 1.75-1.94 3.36-3.97 5-6 2.19-2.38 2.19-2.38 4-4h2l1-3c1.94-2.19 1.94-2.19 4-4h2l1-3c1.45-1.25 2.91-2.5 4.41-3.69 1.77-1.4 1.77-1.4 3.84-3.62 11.5-11.3 22.3-16 38.3-16.1 17.7 0.344 33.9 12.4 48.5 21.6 4.79 3.04 9.64 5.95 14.5 8.82l4.3 2.51c5.74 3.35 11.4 6.78 17.1 10.2 2.14 1.29 4.28 2.57 6.42 3.85 9.06 5.42 18.1 10.9 27.1 16.4 0.577 0.351 1.15 0.702 1.75 1.06 0.575 0.35 1.15 0.7 1.74 1.06 11.6 7.06 23.3 14 35 20.9 0.664 0.393 1.33 0.786 2.01 1.19 1.25 0.739 2.5 1.48 3.75 2.21 4.16 2.46 4.16 2.46 5.28 3.58 5.35-0.382 9.46-1.94 14.1-4.44 1.41-0.729 2.81-1.46 4.22-2.18 0.748-0.386 1.5-0.773 2.27-1.17 4.28-2.17 8.61-4.22 12.9-6.27 0.813-0.387 1.63-0.773 2.46-1.17 1.7-0.805 3.4-1.61 5.1-2.41 2.08-0.985 4.16-1.98 6.23-2.99 9.7-4.69 19.6-8.42 29.8-12 1.56-0.551 3.11-1.1 4.67-1.66 0.762-0.27 1.52-0.54 2.31-0.818 1.51-0.54 3.02-1.09 4.52-1.65 3.41-1.26 6.66-2.32 10.2-3.13 3.67-0.948 6.15-1.82 9.17-4.12 2.45-4.82 3.4-9.71 4.4-15 0.909-4.54 2.05-9.02 3.17-13.5 0.984-3.96 1.94-7.92 2.89-11.9 0.335-1.39 0.669-2.79 1-4.18 0.169-0.703 0.337-1.41 0.511-2.13 1.6-6.65 3.21-13.3 4.81-20 0.268-1.11 0.268-1.11 0.542-2.24 4.66-19.3 9.48-38.5 14.3-57.8 1.63-6.47 3.23-12.9 4.81-19.4 1.08-4.42 2.17-8.84 3.25-13.3 0.509-2.08 1.01-4.15 1.52-6.23 8.46-35 8.46-35 24.4-45.4 9.22-5.38 18.1-8.31 28.8-8.28zm-22.4 491c-0.893 0.331-1.79 0.663-2.71 1-10.8 4.05-21.2 8.63-31.3 14-1.96 1.02-3.93 2.01-5.91 2.99-17.4 8.8-33.9 19.7-49 32-1.28 0.99-1.28 0.99-2.58 2-5.76 4.49-11.1 9.32-16.5 14.3-2.59 2.39-5.22 4.71-7.87 7.02-9.96 8.95-18.8 19.2-27.1 29.7-0.484 0.612-0.969 1.22-1.47 1.85-8.16 10.3-15.7 20.9-22.5 32.1-0.446 0.723-0.891 1.45-1.35 2.19-40.8 66.7-56.6 149-42.6 226 0.273 1.57 0.273 1.57 0.551 3.18 10.8 61 39.7 118 82 163 2.28 2.45 4.49 4.96 6.68 7.49 2.97 3.35 6.08 6.3 9.5 9.18 2.36 2.04 4.63 4.17 6.9 6.31 6.47 6.09 13.2 11.5 20.4 16.7 1.23 0.898 2.46 1.8 3.69 2.7 19 13.8 38.8 25.8 60.3 35.3 1.6 0.716 1.6 0.716 3.24 1.45 8.7 3.82 17.5 7.07 26.5 10.1 0.714 0.237 1.43 0.474 2.16 0.719 33 10.9 66.8 16 102 16 0.89-9.37e-4 1.78-0.00187 2.7-0.00284 13-0.0297 25.9-0.251 38.8-2.18 1.05-0.151 2.1-0.301 3.18-0.457 37.3-5.49 72.2-16.5 106-33.5 0.739-0.37 1.48-0.74 2.24-1.12 18.1-9.09 34.7-20.6 50.8-32.9 0.929-0.694 1.86-1.39 2.82-2.1 16-12.3 31.3-27.4 44.2-42.9 0.721-0.831 1.44-1.66 2.18-2.52 10.8-12.7 20.4-26.2 28.7-40.6 1.12-1.91 2.28-3.79 3.45-5.67 23-37.3 35.7-80.1 41.6-123 0.133-0.942 0.266-1.88 0.402-2.85 1.71-12.8 1.77-25.6 1.79-38.5 0.00118-0.804 0.00236-1.61 0.00357-2.44-0.00276-16.6-0.966-32.9-3.75-49.3-0.13-0.774-0.261-1.55-0.395-2.34-10.7-62.9-39-121-82.6-168-1.96-2.11-3.81-4.25-5.65-6.46-8.74-10.1-19.3-19-29.8-27.1-0.67-0.526-1.34-1.05-2.03-1.6-81-63.4-186-85.6-317-51.4z" fill="#000100"/>
</svg>
