<svg width="58" height="10" viewBox="0 0 58 10" fill="none" xmlns="http://www.w3.org/2000/svg">
<path d="M9.98323 3.78272C9.95169 3.68707 9.89434 3.60306 9.81812 3.54088C9.7419 3.47869 9.65008 3.441 9.55381 3.43237L6.71268 2.99837L5.43941 0.294973C5.39852 0.206566 5.33469 0.132007 5.25521 0.0798382C5.17573 0.0276692 5.08382 0 4.99002 0C4.89622 0 4.80432 0.0276692 4.72484 0.0798382C4.64536 0.132007 4.58152 0.206566 4.54063 0.294973L3.26737 2.99314L0.426235 3.43237C0.333822 3.44613 0.246941 3.48674 0.175451 3.54959C0.103962 3.61244 0.0507258 3.69501 0.0217852 3.78795C-0.00470622 3.87876 -0.00708351 3.97541 0.0149085 4.06754C0.0369005 4.15966 0.0824315 4.24377 0.146615 4.31084L2.20881 6.40244L1.70949 9.37252C1.69166 9.47055 1.701 9.57188 1.73639 9.66453C1.77178 9.75719 1.83175 9.8373 1.90922 9.89542C1.98472 9.95195 2.07378 9.98531 2.16639 9.99178C2.259 9.99825 2.3515 9.97755 2.4335 9.93202L4.99002 8.53588L7.53656 9.93725C7.60664 9.97865 7.68578 10.0003 7.76624 10C7.87201 10.0004 7.97517 9.9656 8.06084 9.90065C8.13831 9.84253 8.19828 9.76242 8.23367 9.66976C8.26906 9.5771 8.2784 9.47578 8.26057 9.37775L7.76125 6.40767L9.82344 4.31607C9.89554 4.25211 9.94882 4.16804 9.9771 4.07363C10.0054 3.97922 10.0075 3.87834 9.98323 3.78272ZM6.91241 5.87432C6.85385 5.93363 6.81004 6.00705 6.7848 6.08817C6.75956 6.16929 6.75365 6.25564 6.7676 6.3397L7.12711 8.53065L5.24967 7.48485C5.17743 7.44456 5.09684 7.42349 5.01499 7.42349C4.93314 7.42349 4.85255 7.44456 4.78031 7.48485L2.90286 8.53065L3.26237 6.3397C3.27632 6.25564 3.27042 6.16929 3.24518 6.08817C3.21994 6.00705 3.17613 5.93363 3.11757 5.87432L1.61961 4.30562L3.72175 3.98665C3.80264 3.97486 3.87953 3.94248 3.94569 3.89234C4.01185 3.8422 4.06526 3.77583 4.10123 3.69905L4.99002 1.7068L5.92875 3.70428C5.96472 3.78106 6.01812 3.84743 6.08428 3.89757C6.15044 3.94771 6.22734 3.98009 6.30823 3.99188L8.41037 4.31084L6.91241 5.87432Z" fill="#BABABA"/>
<path d="M57.9832 3.78272C57.9517 3.68707 57.8943 3.60306 57.8181 3.54088C57.7419 3.47869 57.6501 3.441 57.5538 3.43237L54.7127 2.99837L53.4394 0.294973C53.3985 0.206566 53.3347 0.132007 53.2552 0.0798382C53.1757 0.0276692 53.0838 0 52.99 0C52.8962 0 52.8043 0.0276692 52.7248 0.0798382C52.6454 0.132007 52.5815 0.206566 52.5406 0.294973L51.2674 2.99314L48.4262 3.43237C48.3338 3.44613 48.2469 3.48674 48.1755 3.54959C48.104 3.61244 48.0507 3.69501 48.0218 3.78795C47.9953 3.87876 47.9929 3.97541 48.0149 4.06754C48.0369 4.15966 48.0824 4.24377 48.1466 4.31084L50.2088 6.40244L49.7095 9.37252C49.6917 9.47055 49.701 9.57188 49.7364 9.66453C49.7718 9.75719 49.8317 9.8373 49.9092 9.89542C49.9847 9.95195 50.0738 9.98531 50.1664 9.99178C50.259 9.99825 50.3515 9.97755 50.4335 9.93202L52.99 8.53588L55.5366 9.93725C55.6066 9.97865 55.6858 10.0003 55.7662 10C55.872 10.0004 55.9752 9.9656 56.0608 9.90065C56.1383 9.84253 56.1983 9.76242 56.2337 9.66976C56.2691 9.5771 56.2784 9.47578 56.2606 9.37775L55.7613 6.40767L57.8234 4.31607C57.8955 4.25211 57.9488 4.16804 57.9771 4.07363C58.0054 3.97922 58.0075 3.87834 57.9832 3.78272ZM54.9124 5.87432C54.8538 5.93363 54.81 6.00705 54.7848 6.08817C54.7596 6.16929 54.7537 6.25564 54.7676 6.3397L55.1271 8.53065L53.2497 7.48485C53.1774 7.44456 53.0968 7.42349 53.015 7.42349C52.9331 7.42349 52.8526 7.44456 52.7803 7.48485L50.9029 8.53065L51.2624 6.3397C51.2763 6.25564 51.2704 6.16929 51.2452 6.08817C51.2199 6.00705 51.1761 5.93363 51.1176 5.87432L49.6196 4.30562L51.7217 3.98665C51.8026 3.97486 51.8795 3.94248 51.9457 3.89234C52.0119 3.8422 52.0653 3.77583 52.1012 3.69905L52.99 1.7068L53.9287 3.70428C53.9647 3.78106 54.0181 3.84743 54.0843 3.89757C54.1504 3.94771 54.2273 3.98009 54.3082 3.99188L56.4104 4.31084L54.9124 5.87432Z" fill="#BABABA"/>
<path d="M21.9832 3.78272C21.9517 3.68707 21.8943 3.60306 21.8181 3.54088C21.7419 3.47869 21.6501 3.441 21.5538 3.43237L18.7127 2.99837L17.4394 0.294973C17.3985 0.206566 17.3347 0.132007 17.2552 0.0798382C17.1757 0.0276692 17.0838 0 16.99 0C16.8962 0 16.8043 0.0276692 16.7248 0.0798382C16.6454 0.132007 16.5815 0.206566 16.5406 0.294973L15.2674 2.99314L12.4262 3.43237C12.3338 3.44613 12.2469 3.48674 12.1755 3.54959C12.104 3.61244 12.0507 3.69501 12.0218 3.78795C11.9953 3.87876 11.9929 3.97541 12.0149 4.06754C12.0369 4.15966 12.0824 4.24377 12.1466 4.31084L14.2088 6.40244L13.7095 9.37252C13.6917 9.47055 13.701 9.57188 13.7364 9.66453C13.7718 9.75719 13.8317 9.8373 13.9092 9.89542C13.9847 9.95195 14.0738 9.98531 14.1664 9.99178C14.259 9.99825 14.3515 9.97755 14.4335 9.93202L16.99 8.53588L19.5366 9.93725C19.6066 9.97865 19.6858 10.0003 19.7662 10C19.872 10.0004 19.9752 9.9656 20.0608 9.90065C20.1383 9.84253 20.1983 9.76242 20.2337 9.66976C20.2691 9.5771 20.2784 9.47578 20.2606 9.37775L19.7613 6.40767L21.8234 4.31607C21.8955 4.25211 21.9488 4.16804 21.9771 4.07363C22.0054 3.97922 22.0075 3.87834 21.9832 3.78272ZM18.9124 5.87432C18.8538 5.93363 18.81 6.00705 18.7848 6.08817C18.7596 6.16929 18.7537 6.25564 18.7676 6.3397L19.1271 8.53065L17.2497 7.48485C17.1774 7.44456 17.0968 7.42349 17.015 7.42349C16.9331 7.42349 16.8526 7.44456 16.7803 7.48485L14.9029 8.53065L15.2624 6.3397C15.2763 6.25564 15.2704 6.16929 15.2452 6.08817C15.2199 6.00705 15.1761 5.93363 15.1176 5.87432L13.6196 4.30562L15.7217 3.98665C15.8026 3.97486 15.8795 3.94248 15.9457 3.89234C16.0119 3.8422 16.0653 3.77583 16.1012 3.69905L16.99 1.7068L17.9287 3.70428C17.9647 3.78106 18.0181 3.84743 18.0843 3.89757C18.1504 3.94771 18.2273 3.98009 18.3082 3.99188L20.4104 4.31084L18.9124 5.87432Z" fill="#BABABA"/>
<path d="M33.9832 3.78272C33.9517 3.68707 33.8943 3.60306 33.8181 3.54088C33.7419 3.47869 33.6501 3.441 33.5538 3.43237L30.7127 2.99837L29.4394 0.294973C29.3985 0.206566 29.3347 0.132007 29.2552 0.0798382C29.1757 0.0276692 29.0838 0 28.99 0C28.8962 0 28.8043 0.0276692 28.7248 0.0798382C28.6454 0.132007 28.5815 0.206566 28.5406 0.294973L27.2674 2.99314L24.4262 3.43237C24.3338 3.44613 24.2469 3.48674 24.1755 3.54959C24.104 3.61244 24.0507 3.69501 24.0218 3.78795C23.9953 3.87876 23.9929 3.97541 24.0149 4.06754C24.0369 4.15966 24.0824 4.24377 24.1466 4.31084L26.2088 6.40244L25.7095 9.37252C25.6917 9.47055 25.701 9.57188 25.7364 9.66453C25.7718 9.75719 25.8317 9.8373 25.9092 9.89542C25.9847 9.95195 26.0738 9.98531 26.1664 9.99178C26.259 9.99825 26.3515 9.97755 26.4335 9.93202L28.99 8.53588L31.5366 9.93725C31.6066 9.97865 31.6858 10.0003 31.7662 10C31.872 10.0004 31.9752 9.9656 32.0608 9.90065C32.1383 9.84253 32.1983 9.76242 32.2337 9.66976C32.2691 9.5771 32.2784 9.47578 32.2606 9.37775L31.7613 6.40767L33.8234 4.31607C33.8955 4.25211 33.9488 4.16804 33.9771 4.07363C34.0054 3.97922 34.0075 3.87834 33.9832 3.78272ZM30.9124 5.87432C30.8538 5.93363 30.81 6.00705 30.7848 6.08817C30.7596 6.16929 30.7537 6.25564 30.7676 6.3397L31.1271 8.53065L29.2497 7.48485C29.1774 7.44456 29.0968 7.42349 29.015 7.42349C28.9331 7.42349 28.8526 7.44456 28.7803 7.48485L26.9029 8.53065L27.2624 6.3397C27.2763 6.25564 27.2704 6.16929 27.2452 6.08817C27.2199 6.00705 27.1761 5.93363 27.1176 5.87432L25.6196 4.30562L27.7217 3.98665C27.8026 3.97486 27.8795 3.94248 27.9457 3.89234C28.0119 3.8422 28.0653 3.77583 28.1012 3.69905L28.99 1.7068L29.9287 3.70428C29.9647 3.78106 30.0181 3.84743 30.0843 3.89757C30.1504 3.94771 30.2273 3.98009 30.3082 3.99188L32.4104 4.31084L30.9124 5.87432Z" fill="#BABABA"/>
<path d="M45.9832 3.78272C45.9517 3.68707 45.8943 3.60306 45.8181 3.54088C45.7419 3.47869 45.6501 3.441 45.5538 3.43237L42.7127 2.99837L41.4394 0.294973C41.3985 0.206566 41.3347 0.132007 41.2552 0.0798382C41.1757 0.0276692 41.0838 0 40.99 0C40.8962 0 40.8043 0.0276692 40.7248 0.0798382C40.6454 0.132007 40.5815 0.206566 40.5406 0.294973L39.2674 2.99314L36.4262 3.43237C36.3338 3.44613 36.2469 3.48674 36.1755 3.54959C36.104 3.61244 36.0507 3.69501 36.0218 3.78795C35.9953 3.87876 35.9929 3.97541 36.0149 4.06754C36.0369 4.15966 36.0824 4.24377 36.1466 4.31084L38.2088 6.40244L37.7095 9.37252C37.6917 9.47055 37.701 9.57188 37.7364 9.66453C37.7718 9.75719 37.8317 9.8373 37.9092 9.89542C37.9847 9.95195 38.0738 9.98531 38.1664 9.99178C38.259 9.99825 38.3515 9.97755 38.4335 9.93202L40.99 8.53588L43.5366 9.93725C43.6066 9.97865 43.6858 10.0003 43.7662 10C43.872 10.0004 43.9752 9.9656 44.0608 9.90065C44.1383 9.84253 44.1983 9.76242 44.2337 9.66976C44.2691 9.5771 44.2784 9.47578 44.2606 9.37775L43.7613 6.40767L45.8234 4.31607C45.8955 4.25211 45.9488 4.16804 45.9771 4.07363C46.0054 3.97922 46.0075 3.87834 45.9832 3.78272ZM42.9124 5.87432C42.8538 5.93363 42.81 6.00705 42.7848 6.08817C42.7596 6.16929 42.7537 6.25564 42.7676 6.3397L43.1271 8.53065L41.2497 7.48485C41.1774 7.44456 41.0968 7.42349 41.015 7.42349C40.9331 7.42349 40.8526 7.44456 40.7803 7.48485L38.9029 8.53065L39.2624 6.3397C39.2763 6.25564 39.2704 6.16929 39.2452 6.08817C39.2199 6.00705 39.1761 5.93363 39.1176 5.87432L37.6196 4.30562L39.7217 3.98665C39.8026 3.97486 39.8795 3.94248 39.9457 3.89234C40.0119 3.8422 40.0653 3.77583 40.1012 3.69905L40.99 1.7068L41.9287 3.70428C41.9647 3.78106 42.0181 3.84743 42.0843 3.89757C42.1504 3.94771 42.2273 3.98009 42.3082 3.99188L44.4104 4.31084L42.9124 5.87432Z" fill="#BABABA"/>
</svg>
