<svg width="30" height="28" viewBox="0 0 30 28" fill="none" xmlns="http://www.w3.org/2000/svg">
<path d="M1.5 4.57143H28.5C28.8978 4.57143 29.2794 4.33061 29.5607 3.90196C29.842 3.4733 30 2.89192 30 2.28571C30 1.67951 29.842 1.09813 29.5607 0.669471C29.2794 0.240816 28.8978 0 28.5 0H1.5C1.10218 0 0.720644 0.240816 0.43934 0.669471C0.158035 1.09813 0 1.67951 0 2.28571C0 2.89192 0.158035 3.4733 0.43934 3.90196C0.720644 4.33061 1.10218 4.57143 1.5 4.57143ZM28.5 22.8571H1.5C1.10218 22.8571 0.720644 23.098 0.43934 23.5266C0.158035 23.9553 0 24.5366 0 25.1429C0 25.7491 0.158035 26.3305 0.43934 26.7591C0.720644 27.1878 1.10218 27.4286 1.5 27.4286H28.5C28.8978 27.4286 29.2794 27.1878 29.5607 26.7591C29.842 26.3305 30 25.7491 30 25.1429C30 24.5366 29.842 23.9553 29.5607 23.5266C29.2794 23.098 28.8978 22.8571 28.5 22.8571ZM28.5 11.4286H1.5C1.10218 11.4286 0.720644 11.6694 0.43934 12.098C0.158035 12.5267 0 13.1081 0 13.7143C0 14.3205 0.158035 14.9019 0.43934 15.3305C0.720644 15.7592 1.10218 16 1.5 16H28.5C28.8978 16 29.2794 15.7592 29.5607 15.3305C29.842 14.9019 30 14.3205 30 13.7143C30 13.1081 29.842 12.5267 29.5607 12.098C29.2794 11.6694 28.8978 11.4286 28.5 11.4286Z" fill="#405758"/>
</svg>
