<svg width="28" height="28" viewBox="0 0 28 28" fill="none" xmlns="http://www.w3.org/2000/svg">
<path d="M26.9465 25.0534L21.9999 20.1467C23.92 17.7526 24.8499 14.7138 24.5983 11.6551C24.3467 8.59646 22.9328 5.75043 20.6472 3.70225C18.3617 1.65406 15.3783 0.559402 12.3104 0.64335C9.24259 0.727297 6.3235 1.98347 4.1534 4.15358C1.98329 6.32368 0.727114 9.24277 0.643166 12.3106C0.559219 15.3785 1.65388 18.3619 3.70207 20.6474C5.75025 22.9329 8.59628 24.3469 11.6549 24.5985C14.7136 24.8501 17.7524 23.9202 20.1465 22.0001L25.0532 26.9067C25.1772 27.0317 25.3246 27.1309 25.4871 27.1986C25.6496 27.2663 25.8239 27.3011 25.9999 27.3011C26.1759 27.3011 26.3502 27.2663 26.5126 27.1986C26.6751 27.1309 26.8226 27.0317 26.9465 26.9067C27.1869 26.6581 27.3212 26.3258 27.3212 25.9801C27.3212 25.6343 27.1869 25.302 26.9465 25.0534ZM12.6665 22.0001C10.8206 22.0001 9.01608 21.4527 7.48122 20.4271C5.94636 19.4015 4.75008 17.9439 4.04366 16.2384C3.33725 14.533 3.15241 12.6564 3.51254 10.8459C3.87267 9.03539 4.76159 7.37235 6.06688 6.06706C7.37217 4.76177 9.03521 3.87286 10.8457 3.51273C12.6562 3.1526 14.5328 3.33743 16.2383 4.04385C17.9437 4.75026 19.4014 5.94654 20.4269 7.4814C21.4525 9.01626 21.9999 10.8208 21.9999 12.6667C21.9999 15.1421 21.0165 17.516 19.2662 19.2664C17.5159 21.0167 15.1419 22.0001 12.6665 22.0001Z" fill="#212F34"/>
</svg>
