<svg width="40" height="40" viewBox="0 0 40 40" fill="none" xmlns="http://www.w3.org/2000/svg">
<path d="M32.9465 31.0534L27.9999 26.1467C29.92 23.7526 30.8499 20.7138 30.5983 17.6551C30.3467 14.5965 28.9328 11.7504 26.6472 9.70225C24.3617 7.65406 21.3783 6.5594 18.3104 6.64335C15.2426 6.7273 12.3235 7.98347 10.1534 10.1536C7.98329 12.3237 6.72711 15.2428 6.64317 18.3106C6.55922 21.3785 7.65388 24.3619 9.70207 26.6474C11.7502 28.9329 14.5963 30.3469 17.6549 30.5985C20.7136 30.8501 23.7524 29.9202 26.1465 28.0001L31.0532 32.9067C31.1772 33.0317 31.3246 33.1309 31.4871 33.1986C31.6496 33.2663 31.8239 33.3011 31.9999 33.3011C32.1759 33.3011 32.3502 33.2663 32.5126 33.1986C32.6751 33.1309 32.8226 33.0317 32.9465 32.9067C33.1869 32.6581 33.3212 32.3258 33.3212 31.9801C33.3212 31.6343 33.1869 31.302 32.9465 31.0534ZM18.6665 28.0001C16.8206 28.0001 15.0161 27.4527 13.4812 26.4271C11.9464 25.4015 10.7501 23.9439 10.0437 22.2384C9.33725 20.533 9.15241 18.6564 9.51254 16.8459C9.87267 15.0354 10.7616 13.3723 12.0669 12.0671C13.3722 10.7618 15.0352 9.87286 16.8457 9.51273C18.6562 9.1526 20.5328 9.33743 22.2383 10.0438C23.9437 10.7503 25.4014 11.9465 26.4269 13.4814C27.4525 15.0163 27.9999 16.8208 27.9999 18.6667C27.9999 21.1421 27.0165 23.516 25.2662 25.2664C23.5159 27.0167 21.1419 28.0001 18.6665 28.0001Z" fill="#405758"/>
</svg>
