<svg width="13" height="19" viewBox="0 0 13 19" fill="none" xmlns="http://www.w3.org/2000/svg">
<path d="M10.2143 0H2.78572C2.0469 0 1.33835 0.296696 0.815923 0.824819C0.293501 1.35294 7.31985e-06 2.06923 7.31985e-06 2.81611V17.8353C-0.000642278 18.0008 0.0419552 18.1634 0.123487 18.3068C0.205018 18.4502 0.322589 18.5693 0.464292 18.652C0.605453 18.7344 0.76558 18.7778 0.928578 18.7778C1.09158 18.7778 1.2517 18.7344 1.39286 18.652L6.5 15.6669L11.6071 18.652C11.7487 18.7331 11.9088 18.7752 12.0714 18.774C12.2341 18.7752 12.3942 18.7331 12.5357 18.652C12.6774 18.5693 12.795 18.4502 12.8765 18.3068C12.958 18.1634 13.0006 18.0008 13 17.8353V2.81611C13 2.06923 12.7065 1.35294 12.1841 0.824819C11.6617 0.296696 10.9531 0 10.2143 0ZM11.1429 16.2114L6.96428 13.7708C6.82312 13.6884 6.663 13.645 6.5 13.645C6.337 13.645 6.17688 13.6884 6.03571 13.7708L1.85715 16.2114V2.81611C1.85715 2.56715 1.95498 2.32839 2.12912 2.15234C2.30326 1.9763 2.53945 1.8774 2.78572 1.8774H10.2143C10.4606 1.8774 10.6967 1.9763 10.8709 2.15234C11.045 2.32839 11.1429 2.56715 11.1429 2.81611V16.2114Z" fill="#BABABA"/>
</svg>
