<?xml version="1.0" encoding="UTF-8"?>
<svg version="1.1" viewBox="0 0 1600 1600" width="1280" height="1280" xmlns="http://www.w3.org/2000/svg">
<path transform="translate(717 154)" d="m0 0c1.13 0.963 2.26 1.93 3.39 2.91 0.608 0.525 1.22 1.05 1.84 1.59 6.23 5.43 12.1 11.2 17.9 17 1.12 1.12 2.24 2.24 3.37 3.35 2.33 2.32 4.65 4.64 6.97 6.97 2.94 2.94 5.89 5.88 8.84 8.81 2.31 2.3 4.62 4.6 6.92 6.91 1.08 1.08 2.17 2.16 3.26 3.24 9.45 9.37 18.9 19.4 24.6 31.6 0.321 0.661 0.642 1.32 0.973 2 10.3 21.8 10.5 47.2 2.4 69.7-7.13 17.3-19.1 30-32.2 43-1.34 1.33-2.67 2.67-4 4-2.85 2.85-5.71 5.7-8.57 8.54-4.52 4.5-9.04 9.01-13.6 13.5-7.14 7.13-14.3 14.2-21.4 21.4-12.8 12.8-25.6 25.5-38.4 38.3-4.49 4.48-8.98 8.96-13.5 13.4-2.79 2.78-5.58 5.56-8.37 8.35-1.29 1.29-2.59 2.58-3.88 3.86-1.77 1.76-3.53 3.52-5.3 5.28-0.511 0.507-1.02 1.01-1.55 1.54-2.9 2.9-5.5 5.93-8.03 9.15-1.24 1.14-2.51 2.24-3.81 3.31-3.57 3.04-6.57 6.33-9.6 9.91-1.99 2.22-4.26 3.94-6.59 5.78-0.804 0.969-1.61 1.94-2.44 2.94-2.62 3.13-5.44 5.46-8.56 8.06-0.825 0.99-1.65 1.98-2.5 3-1.89 2.26-3.44 3.88-5.69 5.69-2.94 2.19-2.94 2.19-4.81 5.31h-2c-0.33 0.99-0.66 1.98-1 3h-2c-0.66 1.32-1.32 2.64-2 4h-2c-0.33 0.99-0.66 1.98-1 3h-2c-0.247 0.577-0.495 1.15-0.75 1.75-1.43 2.58-3.03 4.31-5.25 6.25h-2c-0.268 0.598-0.536 1.2-0.812 1.81-1.19 2.19-2.28 3.6-4.19 5.19h-2c-0.33 0.99-0.66 1.98-1 3h-2c-0.234 0.559-0.468 1.12-0.709 1.69-1.62 2.89-3.6 4.86-5.95 7.2-0.477 0.478-0.953 0.957-1.44 1.45-1.6 1.6-3.2 3.19-4.8 4.79-1.15 1.15-2.29 2.29-3.44 3.44-3.11 3.11-6.23 6.22-9.35 9.33-3.26 3.25-6.52 6.51-9.78 9.77-6.18 6.17-12.4 12.3-18.5 18.5-7.02 7-14 14-21.1 21-12 12-24 24-36 35.9-0.507 0.506-1.01 1.01-1.54 1.53-1.35 1.35-2.7 2.69-4.05 4.04-2.11 2.1-4.21 4.2-6.31 6.31 0.93-3.12e-4 1.86-6.24e-4 2.82-9.45e-4 85.4-0.0286 171-0.0572 304-0.0837 1.53-2.79e-4 3.05-5.58e-4 4.58-8.37e-4 32.1-0.00585 64.1-0.0113 96.2-0.0162 16.1-0.00249 32.2-0.00506 48.3-0.00771 2.43-3.98e-4 4.86-7.95e-4 7.29-0.00119 37.4-0.00612 74.8-0.0139 112-0.0267 1.21-4.11e-4 1.21-4.11e-4 2.44-8.3e-4 13-0.00442 25.9-0.00899 38.9-0.0136 37.3-0.0132 74.7-0.0254 112-0.0305 1.15-1.61e-4 1.15-1.61e-4 2.33-3.24e-4 16.9-0.00233 33.7-0.00412 50.6-0.0054 6.79-5.23e-4 13.6-0.00112 20.4-0.00175 0.743-6.69e-5 1.49-1.34e-4 2.25-2.03e-4 23.9-0.00219 47.8-0.0107 71.8-0.0226 24.1-0.0119 48.2-0.0176 72.3-0.0147 15 0.00182 29.9-0.00174 44.9-0.0143 9.54-0.0075 19.1-0.00773 28.6-0.00207 5.44 0.00302 10.9 0.00288 16.3-0.0061 4.95-0.00812 9.9-0.00695 14.8 0.00149 1.77 0.00142 3.55-4.73e-4 5.32-0.00619 27.3-0.0822 51.4 5.42 72 24.3 0.728 0.659 1.46 1.32 2.21 2 12.1 11.5 19.8 26.9 23.8 43 0.167 0.602 0.334 1.2 0.506 1.82 2.21 9.11 1.82 18.5 1.83 27.8 0.00644 1.92 0.0132 3.83 0.0202 5.75 0.0119 4.01 0.0157 8.02 0.0145 12-2.02e-4 5.09 0.027 10.2 0.0615 15.3 0.0225 3.96 0.0263 7.91 0.0252 11.9 0.00233 1.87 0.011 3.74 0.0267 5.62 0.209 27.5-7.13 53-26.8 73.2-1.33 1.34-1.33 1.34-2.7 2.71-0.683 0.718-1.37 1.44-2.07 2.18-18.8 18.4-44.3 22.1-69.4 22.1-1.86 0.00319-3.71 0.00726-5.57 0.0121-5.09 0.0108-10.2 0.00924-15.3 0.00565-5.54-0.00171-11.1 0.00816-16.6 0.0166-9.71 0.0131-19.4 0.0189-29.1 0.0198-14.4 0.00138-28.9 0.0142-43.3 0.0293-24.3 0.0253-48.6 0.041-72.9 0.0516-24 0.0105-48.1 0.0251-72.1 0.0453-0.747 6.24e-4 -1.49 0.00125-2.26 0.00189-6.82 0.0057-13.6 0.0115-20.5 0.0173-17 0.0144-33.9 0.0283-50.9 0.0416-0.772 6.1e-4 -1.54 0.00122-2.34 0.00185-37.6 0.0296-75.1 0.0519-113 0.0735-13 0.00752-26.1 0.0151-39.1 0.0228-0.808 4.77e-4 -1.62 9.54e-4 -2.45 0.00144-37.6 0.0222-75.2 0.0496-113 0.0784-2.44 0.00187-4.88 0.00373-7.32 0.0056-16.2 0.0124-32.3 0.0248-48.5 0.0373-32.2 0.0249-64.4 0.0493-96.5 0.0733-1.53 0.00114-3.06 0.00229-4.6 0.00343-80.3 0.06-161 0.111-306 0.2 0.945 1.11 1.89 2.22 2.84 3.33 0.527 0.618 1.05 1.24 1.6 1.87 2.11 2.41 4.35 4.67 6.63 6.92 0.816 0.807 1.63 1.61 2.47 2.45 0.813 0.802 1.63 1.6 2.46 2.43 1.67 1.67 3.33 3.33 5 5 1.05 1.05 2.1 2.1 3.16 3.16 6.69 6.69 6.69 6.69 8.3 8.3 1.43 1.43 2.86 2.86 4.3 4.29 1.57 1.57 3.13 3.16 4.68 4.75 2.56 2.57 2.56 2.57 5.56 4.94 3.07 2.63 5.42 5.46 8 8.56 1.94 1.75 3.97 3.36 6 5 2.37 2.19 2.37 2.19 4 4v2c0.99 0.33 1.98 0.66 3 1 1.73 1.62 3.36 3.29 5 5 1.48 1.49 2.97 2.97 4.46 4.46 1.34 1.34 2.68 2.69 4.03 4.03 2.58 2.58 5.16 5.17 7.75 7.75 0.555 0.555 1.11 1.11 1.68 1.68 25.5 25.5 51.1 51.1 76.6 76.6 3.69 3.69 7.38 7.38 11.1 11.1 0.734 0.735 1.47 1.47 2.23 2.23 11.9 11.9 23.8 23.8 35.7 35.7 12.2 12.2 24.4 24.5 36.7 36.7 7.54 7.54 15.1 15.1 22.6 22.6 5.16 5.17 10.3 10.3 15.5 15.5 2.98 2.98 5.96 5.96 8.94 8.95 2.73 2.73 5.46 5.46 8.19 8.19 0.987 0.986 1.97 1.97 2.96 2.96 4.71 4.73 9.4 9.32 14.6 13.5 2.38 2.19 2.38 2.19 4 4v2c0.99 0.33 1.98 0.66 3 1 1.54 1.53 1.54 1.53 3.19 3.5 1.88 2.24 3.76 4.45 5.77 6.57 15.7 16.7 23.7 38.9 23 61.9-2.37 37.2-27.9 60.4-52.7 85-2.31 2.3-4.62 4.61-6.93 6.92-2.24 2.24-4.48 4.47-6.72 6.7-1.06 1.06-2.12 2.12-3.19 3.18-1.48 1.48-2.96 2.95-4.44 4.42-1.26 1.25-1.26 1.25-2.54 2.53-6.65 6.28-6.65 6.28-9.41 6.28v2c-19.5 14.3-44.3 20.6-68.1 16.9-23.3-3.68-40-16.7-56.3-33.1-1-1-2.01-2-3.01-3-2.74-2.73-5.48-5.47-8.21-8.21-2.98-2.99-5.97-5.97-8.96-8.95-5.23-5.22-10.5-10.4-15.7-15.7-7.77-7.77-15.5-15.5-23.3-23.3-14.7-14.7-29.4-29.4-44.1-44-11.3-11.3-22.7-22.7-34-34-3.27-3.26-6.53-6.53-9.8-9.79-0.812-0.812-1.62-1.62-2.46-2.46-22.8-22.8-45.7-45.7-68.5-68.5-0.86-0.86-1.72-1.72-2.61-2.61-4.36-4.36-8.72-8.72-13.1-13.1-1.3-1.3-1.3-1.3-2.62-2.62-1.75-1.75-3.5-3.5-5.25-5.25-27.3-27.3-54.5-54.5-81.8-81.8-30.6-30.6-61.3-61.2-91.9-91.9-3.27-3.27-6.53-6.53-9.8-9.8-0.804-0.804-1.61-1.61-2.44-2.44-12.9-12.9-25.9-25.9-38.8-38.8-13-13-26-26-39-39-7.72-7.73-15.4-15.4-23.2-23.2-5.17-5.16-10.3-10.3-15.5-15.5-2.93-2.94-5.87-5.88-8.82-8.81-2.69-2.67-5.36-5.35-8.03-8.04-1.4-1.41-2.82-2.81-4.23-4.2-18.1-18.3-28.7-41.5-28.7-67.4 0.643-36.6 26.7-61.2 50.8-85.3 2.94-2.94 5.88-5.88 8.82-8.83 5.14-5.15 10.3-10.3 15.4-15.4 7.65-7.64 15.3-15.3 22.9-22.9 13.7-13.7 27.3-27.3 41-41 12-12 23.9-23.9 35.9-35.9 0.793-0.794 1.59-1.59 2.4-2.4 3.22-3.22 6.44-6.44 9.66-9.67 30.2-30.2 60.4-60.4 90.6-90.6 26.8-26.8 53.7-53.7 80.5-80.5 30.1-30.2 60.3-60.3 90.5-90.5 3.21-3.21 6.43-6.43 9.64-9.64 0.791-0.791 1.58-1.58 2.4-2.4 11.9-11.9 23.9-23.9 35.8-35.8 13.6-13.6 27.2-27.2 40.8-40.7 7.6-7.6 15.2-15.2 22.8-22.8 5.08-5.08 10.2-10.2 15.2-15.2 2.89-2.89 5.79-5.78 8.68-8.68 2.63-2.64 5.27-5.27 7.91-7.9 1.39-1.38 2.77-2.77 4.15-4.16 32.2-32 83.6-45.1 122-13.6z" fill="#000002"/>
</svg>
