<svg width="23" height="26" viewBox="0 0 23 26" fill="none" xmlns="http://www.w3.org/2000/svg">
<path d="M22.8898 17.5478L20.2755 7.3997C19.7173 5.22889 18.5009 3.32156 16.82 1.98128C15.1391 0.640994 13.0903 -0.0552265 10.9996 0.00342424C8.90885 0.062075 6.89643 0.872227 5.28258 2.30494C3.66873 3.73765 2.5462 5.71059 2.09365 7.90975L0.0716528 17.7102C-0.0261866 18.185 -0.0238001 18.6774 0.0786362 19.1511C0.181073 19.6248 0.380945 20.0676 0.663507 20.447C0.946068 20.8264 1.30411 21.1326 1.71121 21.343C2.11832 21.5534 2.5641 21.6628 3.01567 21.6629H6.64239C6.87316 22.8869 7.48973 23.9873 8.38763 24.7778C9.28552 25.5682 10.4095 26 11.5692 26C12.7289 26 13.8529 25.5682 14.7508 24.7778C15.6486 23.9873 16.2652 22.8869 16.496 21.6629H19.985C20.4496 21.6627 20.9079 21.5468 21.3241 21.3244C21.7404 21.102 22.1033 20.7791 22.3845 20.3807C22.6658 19.9824 22.8578 19.5195 22.9456 19.0281C23.0335 18.5367 23.0137 18.0301 22.8898 17.5478ZM11.5692 23.8287C10.9475 23.826 10.3419 23.6164 9.83506 23.2287C9.32823 22.841 8.945 22.2941 8.73779 21.6629H14.4006C14.1934 22.2941 13.8101 22.841 13.3033 23.2287C12.7965 23.6164 12.1908 23.826 11.5692 23.8287ZM20.7843 19.0693C20.6905 19.2032 20.5689 19.3117 20.4292 19.3859C20.2896 19.4602 20.1357 19.4983 19.9799 19.497H3.01567C2.86511 19.497 2.71648 19.4606 2.58075 19.3904C2.44502 19.3202 2.32565 19.2181 2.23145 19.0916C2.13726 18.9651 2.07065 18.8175 2.03653 18.6595C2.00241 18.5016 2.00166 18.3374 2.03433 18.1791L4.05633 8.37866C4.41262 6.65271 5.29437 5.10456 6.56141 3.98031C7.82845 2.85607 9.40806 2.22026 11.0491 2.17396C12.6902 2.12766 14.2986 2.67352 15.6185 3.72476C16.9385 4.77601 17.8943 6.27232 18.334 7.97581L20.9482 18.1239C20.9909 18.2844 20.9983 18.4533 20.9699 18.6174C20.9414 18.7815 20.8779 18.9362 20.7843 19.0693Z" fill="#BABABA"/>
</svg>
